PathFileType	3	(X/Y/Z)	D:\Jess\PFP\Labelled\PA11\20250805\SRRun01.trc
DataRate	CameraRate	NumFrames	NumMarkers	Units	OrigDataRate	OrigDataStartFrame	OrigNumFrames
250.0	250.0	4	33	mm	250.0	35000	2501
Frame#	Time	C7			T10			CLAV			LSHO			RSHO			LASIS			RASIS			LPSIS			RPSIS			LILCR			RILCR			LGTR			LTHI			LLTHI			LLEP			LPSH			LLSH			LDSH			LLMAL			LTOE			L5TH			LHEE			RGTR			RTHI			RLTHI			RLEP			RPSH			RLSH			RDSH			RLMAL			RTOE			R5TH			RHEE			
		X1	Y1	Z1	X2	Y2	Z2	X3	Y3	Z3	X4	Y4	Z4	X5	Y5	Z5	X6	Y6	Z6	X7	Y7	Z7	X8	Y8	Z8	X9	Y9	Z9	X10	Y10	Z10	X11	Y11	Z11	X12	Y12	Z12	X13	Y13	Z13	X14	Y14	Z14	X15	Y15	Z15	X16	Y16	Z16	X17	Y17	Z17	X18	Y18	Z18	X19	Y19	Z19	X20	Y20	Z20	X21	Y21	Z21	X22	Y22	Z22	X23	Y23	Z23	X24	Y24	Z24	X25	Y25	Z25	X26	Y26	Z26	X27	Y27	Z27	X28	Y28	Z28	X29	Y29	Z29	X30	Y30	Z30	X31	Y31	Z31	X32	Y32	Z32	X33	Y33	Z33	

1	139.996	991.3114219301118	1545.670975232335	-379.6944355010085	916.1534994651065	1331.5462126496	-341.0638667924975	1104.619558639079	1444.447890094134	-417.5881003738361	1021.220475365641	1520.347872932904	-537.8295547018415	1095.276448291359	1523.716248361934	-259.3328019583517	1094.83875247858	1100.875490690171	-520.1950140158609	1114.163447870245	1074.583684043505	-274.9379185666645	910.5219689384535	1132.511959565741	-420.058263694675	913.2417477702201	1135.644420731123	-385.6621333851401	1012.178291804683	1172.165753036576	-556.5096298644482	1051.77263666002	1152.990477896293	-224.5569766636112	1050.550287135818	998.6460233305792	-614.4299773260044	1177.664338794019	818.4145166521914	-500.9370045093461	1111.796397518749	686.7739404515432	-563.5511551779119	1132.375761406397	560.8422179471933	-545.6968748824833	1207.39349326305	502.3942768968902	-490.9064268304226	1130.247632447996	340.5599023498277	-538.466892166549	1209.042174384278	233.3840752802541	-469.7070225799444	1160.493050835859	120.0518165675035	-489.3436498391419	1323.056790133879	132.7633143691739	-480.7492895839738	1304.480450820126	84.75016344303926	-517.9080827109697	1111.117469116112	71.95155382298131	-431.9298182625857	1005.97654820799	1009.349222832177	-183.2447713909447	1087.847323085179	760.2824549670245	-292.0823424713673	951.4354186265774	685.892547271617	-225.8247782227789	909.7633806376589	541.0864400306713	-245.8292189956818	897.3813288663265	446.6687514839239	-303.6005842279769	737.8494279221579	405.822394140167	-243.3388111137613	707.2730401544047	284.3861066616445	-294.0536334761438	589.5379303723124	261.9996091072307	-270.7207409509667	592.7271197978939	101.0402164856942	-281.0321280223468	545.3268355133932	127.9055399034368	-255.8703767233578	549.6670937407949	316.1040945573016	-333.8783269696191	
2	140	991.107650534949	1543.09384290221	-380.9408933273585	915.4733833294918	1329.387633796106	-342.1415473236138	1104.256876465629	1441.752436155134	-418.2369565688024	1021.415685360246	1517.419889902588	-538.988204867958	1094.796380509062	1520.902532057416	-260.1698861180659	1094.64960480208	1098.234174815395	-520.4644331259263	1113.81767584274	1072.960239508267	-274.9259405664737	910.3233098906005	1129.440989717902	-419.896006486629	913.2382908845765	1132.617198064018	-385.5673533073133	1012.197914840846	1169.209543574623	-556.97979657978	1050.484779549256	1151.211079442201	-224.7296786101636	1049.385756708376	995.256935754644	-614.3370656892198	1177.873411841141	816.4010126275327	-501.3443126601022	1111.68559268811	683.4999534857237	-563.3506356434159	1131.290913704668	557.7349162973015	-545.9203014159547	1205.37187695904	498.3047388212893	-490.9917934469922	1126.979050737644	337.5652178225964	-538.8178155868817	1204.120799776673	229.6406590462081	-469.5158391773038	1153.995477517576	117.5158746500784	-489.4839652822438	1316.49650299638	126.5585761253045	-480.2701993254047	1296.769732536627	79.32388343864784	-517.6346370922589	1103.488231161733	71.89446855280542	-431.6544578059293	1006.266012084901	1006.898817118284	-183.455293599945	1090.954570969224	758.3600760890898	-292.7536333890444	955.4665475574292	681.8194712832868	-225.8010140291247	915.7137347913837	537.4285204696777	-245.0854108640819	902.0941020810918	443.2710730698107	-302.4632440277827	741.3206338454943	406.1544546644325	-242.7145188904699	709.0841113203352	284.8617393519485	-292.7268966709919	590.810607806147	264.7270636827471	-269.7483530977402	592.8138777111365	103.8101238097774	-277.8276293744445	545.6926122225623	131.4637083006562	-252.9619761894665	551.1986461160495	318.3540286879663	-333.6149129336623	
3	140.004	990.8919980247567	1540.527993214365	-382.187670047552	914.8067255979447	1327.209918755166	-343.210035693906	1103.899246760942	1439.074198109654	-418.8790736740501	1021.60595029941	1514.50473983525	-540.147655847155	1094.312993649574	1518.105873394208	-260.9934578612458	1094.485601163618	1095.579544693216	-520.7283359502802	1113.480039674761	1071.352735522855	-274.9130551329422	910.1112500317847	1126.368328812496	-419.7540206912105	913.225744040173	1129.599157274551	-385.4877493866058	1012.242534502037	1166.250300487989	-557.4515191869081	1049.224549177852	1149.441375066038	-224.8954095041335	1048.252175695267	991.8472789403047	-614.2505678314099	1178.08651115552	814.3515801378658	-501.7456020740532	1111.517726959133	680.2385582823777	-563.1643542415229	1130.169301219299	554.6237182532419	-546.1522996677577	1203.373973412906	494.2332287153893	-491.0883361154141	1123.753499085748	334.581835603432	-539.1415053122039	1199.257121801222	225.9312059354762	-469.293391047749	1147.559756344083	115.013812297137	-489.5916876858138	1309.995414707518	120.4275486927248	-479.7747522081092	1289.12979298399	73.98616492668833	-517.3581822234585	1095.93237063436	71.84030969032702	-431.3616172109377	1006.545669652515	1004.459415149621	-183.6608293390395	1094.044762135643	756.4148535037004	-293.4238094329189	959.4569813437806	677.7440898605322	-225.7795577165847	921.5940404782204	533.7733059755134	-244.3340401866659	906.7474346321463	439.8863798392901	-301.3197634303121	744.7516927118502	406.4653670572424	-242.0906539221516	710.8691755886789	285.3209979375052	-291.406194043015	592.0619551601786	267.4262802282062	-268.7887129170344	592.8829965870583	106.5589802729602	-274.6452196522851	546.0342364467705	134.9957817954897	-250.0867974582227	552.7241278890701	320.5762020685671	-333.3687540973017	
4	140.008	990.6632101176488	1537.970218085739	-383.4424656123338	914.1572033212136	1324.987113742371	-344.273031593279	1103.552634339523	1436.39336407773	-419.51087882761	1021.800581805968	1511.585833509223	-541.3175142524117	1093.824951511634	1515.316401943066	-261.7893041858837	1094.342835525645	1092.882829700516	-521.0003472693885	1113.146055194299	1069.725871828541	-274.9082880855293	909.856463576515	1123.257806392941	-419.6261803360675	913.1725342412401	1126.552354014163	-385.4144339826699	1012.299254441546	1163.264317209005	-557.9280301017288	1048.009018880052	1147.643487503731	-225.0548301485289	1047.135984339107	988.3990218057792	-614.1765166964522	1178.286239911113	812.2427715604737	-502.1606987407191	1111.23266285309	676.9936034678709	-563.0071495425934	1128.982187625167	551.5060183876192	-546.3938742965162	1201.398361985835	490.1930305889337	-491.1926905486295	1120.565000750437	331.6251848344318	-539.4146203662723	1194.432698695844	222.2807657462616	-469.008552718143	1141.1579754343	112.5834132578984	-489.6365777864464	1303.518155964664	114.4372461326066	-479.2485881370397	1281.534820091536	68.82068222418314	-517.0773158484188	1088.427636982023	71.79757029315769	-431.03706339039	1006.816881938236	1001.981992553455	-183.8615487512275	1097.121903581896	754.4279104093758	-294.0802027602744	963.4125839146054	673.6556284460644	-225.7521112063664	927.40634895422	530.1142133109859	-243.5651916594654	911.3649999836032	436.5177750745217	-300.1612019016733	748.1809360754424	406.7262649360654	-241.4593134980059	712.6733796012213	285.7492489479606	-290.0940611201427	593.3424953480296	270.0748797891595	-267.847955376518	593.0037779533168	109.2713716093436	-271.4966857595199	546.4151321126121	138.4784486228915	-247.2607788576383	554.2933655360036	322.7458096404584	-333.1458571357304	
